<svg xmlns="http://www.w3.org/2000/svg" width="73.999" height="70.49" viewBox="0 0 73.999 70.49">
  <g id="logo" transform="translate(-1.613 -2.205)">
    <g id="home" transform="translate(1.613 2.205)">
      <g id="Header" transform="translate(0 0)">
        <g id="Group" transform="translate(0 0)">
          <g id="mob-_-header" data-name="mob-/-header">
            <g id="logo-2" data-name="logo">
              <g id="Group_1843" data-name="Group 1843">
                <path id="logotype" d="M26.415,48.771a1.568,1.568,0,0,1-1.076-.78,1.465,1.465,0,0,1-.123-.825c0-.569.006-.6.167-.831a1.1,1.1,0,0,1,.853-.524,17.479,17.479,0,0,0,5-1.783,24.678,24.678,0,0,0,4.671-3.082,8.955,8.955,0,0,1,1.41-.97c.485-.223.836-.279.892-.128.028.067.089.078.3.05.262-.034.273-.028.363.145.111.212.067.429-.173.9-.117.234-.123.262-.034.345s.067.123-.178.485a16.274,16.274,0,0,1-2.58,2.742,19.547,19.547,0,0,1-3.7,2.43,19.082,19.082,0,0,1-3.595,1.717A5.66,5.66,0,0,1,26.415,48.771ZM21.9,43.683c-2.675-.184-4.509-.769-5.78-1.845a4.934,4.934,0,0,1-1.471-2.6,7.349,7.349,0,0,1,0-1.979,10.252,10.252,0,0,1,1.31-3.121A23.582,23.582,0,0,1,23.21,27.2a3.309,3.309,0,0,1,2.19-.429,2.337,2.337,0,0,1,1.365.507.593.593,0,0,1,.089.814c-.189.307-.418.412-.953.429a3.775,3.775,0,0,0-1.694.518,18.363,18.363,0,0,0-5.646,4.927A8.351,8.351,0,0,0,16.773,37.7a1.363,1.363,0,0,0,.05.825,3.176,3.176,0,0,0,2.241,1.85,8.876,8.876,0,0,0,4.258-.134c1.616-.423,2.324-1.042,2.33-2.034a4.586,4.586,0,0,0-.708-2.107,6.869,6.869,0,0,1-.914-2.809,2.608,2.608,0,0,1,.49-1.795c.546-.813,1.248-1.354,3.394-2.619a14.013,14.013,0,0,0,3.127-2.224c1.087-.959,1.449-1.371,1.622-1.822a10.5,10.5,0,0,0,.189-2.909c-.033-1.616.067-2.174.474-2.513.256-.217.5-.24,1.109-.106,1.694.384,2.134,1.092,2.129,3.416a7.624,7.624,0,0,1-1.1,4.4c-.4.713-.435,1.232-.095,1.494.267.217.8.095,1.454-.329a7.563,7.563,0,0,0,2.04-2.436c.563-.858.725-1.059.953-1.176a1.94,1.94,0,0,1,1.85.357,2.113,2.113,0,0,1,.162.54,1.553,1.553,0,0,0,.607,1.126,8.184,8.184,0,0,0,3.4-.123l.39-.1.039-.362a11.777,11.777,0,0,1,1.02-4.08c.819-1.828,1.36-2.374,2.558-2.58,1.126-.19,2.185-.067,5.133.6l1.059.234,1.421.006a5.393,5.393,0,0,1,1.622.089c.173.078.245.19.6.875.618,1.2.58,1.36-.479,1.895a12.213,12.213,0,0,0-2.408,1.6,20.153,20.153,0,0,1-2.547,1.795,27.069,27.069,0,0,1-6.621,2.826,10.524,10.524,0,0,1-6.482-.05,1.427,1.427,0,0,0-.569-.167,1.659,1.659,0,0,0-.384.412,7.256,7.256,0,0,1-2.33,1.951,4.41,4.41,0,0,1-2.374.552A2.037,2.037,0,0,1,34,31.544a3.149,3.149,0,0,1-.708-1.36,1.012,1.012,0,0,0-.15-.4A30.7,30.7,0,0,0,29.87,31.65c-2.168,1.3-2.5,1.622-2.436,2.341a6.235,6.235,0,0,0,.669,1.9,7.328,7.328,0,0,1,.674,1.962,4.27,4.27,0,0,1-.908,4,6.19,6.19,0,0,1-3.1,1.616A13.481,13.481,0,0,1,21.9,43.683ZM49.433,25.441a24.129,24.129,0,0,0,3.344-1.828c.569-.373,1.065-.708,1.1-.741.1-.084.056-.184-.106-.228a26.634,26.634,0,0,0-2.675-.385c-.992,0-1.811.713-2.391,2.073a9.519,9.519,0,0,0-.446,1.4C48.262,25.854,48.831,25.709,49.433,25.441ZM2,33.138A1.657,1.657,0,0,1,.633,31.979c-.089-.591.061-.959,1.143-2.887.73-1.3,2.324-4.47,2.87-5.707.914-2.073,1.622-3.884,2.207-5.629s.741-2.057,1.215-2.33a1.5,1.5,0,0,1,1.756.312,5.13,5.13,0,0,1,.674,1.483A18.005,18.005,0,0,0,12.03,20.76a4.613,4.613,0,0,0,2.737,2.263,7.02,7.02,0,0,0,2.369,0,22.8,22.8,0,0,0,6.9-2.909,28.725,28.725,0,0,0,5.339-4.325,11.421,11.421,0,0,0,1.655-2.023c.49-.7.953-1.354,1.026-1.443.535-.7,2.135-.334,2.564.58a3.783,3.783,0,0,1,.15,1.365c-.245,1.4-2.146,3.617-5.473,6.381a21.745,21.745,0,0,1-2.809,2.04,26.08,26.08,0,0,1-7.736,3.617,7.9,7.9,0,0,1-4.252-.05A5.929,5.929,0,0,1,12,24.539a16.948,16.948,0,0,1-2.586-3.6,5.1,5.1,0,0,0-.368-.613c-.006.011-.234.6-.5,1.3-.686,1.828-1.443,3.717-2.051,5.1A41.558,41.558,0,0,1,3.4,32.7,1.232,1.232,0,0,1,2,33.138Zm8-.925a1.927,1.927,0,0,1-1.009-2.079,1.542,1.542,0,0,1,1.037-1.483,1.837,1.837,0,0,1,.875-.189,1.268,1.268,0,0,1,.758.095,1.807,1.807,0,0,1,.814.842,1.734,1.734,0,0,1,.145.975c0,.63-.011.685-.156.936a2.17,2.17,0,0,1-1.025.82A2.582,2.582,0,0,1,10,32.213ZM48.97,16.346a1.225,1.225,0,0,1-.741-.451,1.9,1.9,0,0,1-.44-1.46,1.538,1.538,0,0,1,.161-.936,1.958,1.958,0,0,1,1.661-.97,1.532,1.532,0,0,1,1.605.9,1.532,1.532,0,0,1,.195.975c0,.669-.067.925-.323,1.209A2.444,2.444,0,0,1,48.97,16.346ZM6.044,12.26a1.266,1.266,0,0,1-.953-.83,2.609,2.609,0,0,1,.078-2.179A2.214,2.214,0,0,1,7.521,8.56a2.115,2.115,0,0,1,.936,2.575A2.072,2.072,0,0,1,7.12,12.227,2.281,2.281,0,0,1,6.044,12.26Z" transform="translate(1.5 21.653)" fill="#212121"/>
                <path id="sabz" d="M16.523,25.89c-.089-.167-.028-.641.228-1.772.959-4.236,3.294-9.809,5.211-12.423a1.906,1.906,0,0,0,.307-.49A16.28,16.28,0,0,0,20.5,13.121a22.479,22.479,0,0,0-4.67,10.9c-.05.351-.1.674-.117.719-.034.106-.479-.323-.663-.635a15.141,15.141,0,0,1-.747-2.4,24.95,24.95,0,0,1-.513-2.87,24.952,24.952,0,0,1,0-3.651,15.962,15.962,0,0,1,.8-3.394c.134-.357.15-.446.089-.485-.162-.1-.206-.033-.379.552a17.139,17.139,0,0,0-.714,5.557,21.185,21.185,0,0,0,1.126,6.1l.139.418-.474-.474c-.457-.451-.485-.5-.613-.92a24.763,24.763,0,0,1-.786-3.651,25.8,25.8,0,0,1-.006-4.682,16.868,16.868,0,0,1,.6-2.586c.167-.5.2-.68.15-.708a3.84,3.84,0,0,0-1.271-.24,1.154,1.154,0,0,0-.669.134c-.457.256-.613.619-.613,1.432a43.665,43.665,0,0,0,2.14,9.631,3.359,3.359,0,0,1,.167.635,2.177,2.177,0,0,1-.446-.39l-.418-.418-.251-.83c-.624-2.073-1.4-5.2-1.689-6.827-.457-2.564-.363-3.511.4-3.912a1.3,1.3,0,0,1,.708-.123,4.059,4.059,0,0,1,1.666.385,1.371,1.371,0,0,0,.507.15c.022-.022.117-.228.223-.457a14.969,14.969,0,0,1,3.266-4.514,21.1,21.1,0,0,1,3.829-2.893c.379-.229.206-.039-.228.245a20.957,20.957,0,0,0-3.935,3.595A18.98,18.98,0,0,0,15.47,9.03a14.708,14.708,0,0,0-.842,1.889c0,.033.05.084.112.117.095.05.139-.006.474-.663,1.644-3.238,4.52-5.83,8.694-7.842a33,33,0,0,1,3.227-1.338,28.638,28.638,0,0,1,3.1-.942,13.776,13.776,0,0,1,.724,2.034c.223.819.268.947.273.819a14,14,0,0,0-.44-1.889c-.123-.424-.223-.786-.217-.808a4.959,4.959,0,0,1,.468,1.159,19.876,19.876,0,0,1-.914,13.17l-.262.6-.831.3a18.059,18.059,0,0,0-3.294,1.5,27.386,27.386,0,0,0-8.578,8.081c-.273.4-.507.741-.529.769S16.568,25.968,16.523,25.89ZM23.936,1.283c0-.033.039-.056.083-.056s.084.011.084.022-.039.033-.084.056S23.936,1.311,23.936,1.283Zm.39-.189A25.307,25.307,0,0,1,27.185,0a7.957,7.957,0,0,1-.936.385c-.551.206-1.193.457-1.421.552C24.426,1.111,24.326,1.138,24.326,1.094Z" transform="translate(26.607 -0.001)" fill="#00a54e"/>
                <path id="ghermez" d="M41.46,58.912A25.683,25.683,0,0,1,38.2,57.173c-.429-.318-.362-.585.262-1.092.234-.19.574-.479.758-.641.429-.385.6-.474.825-.423a7.172,7.172,0,0,1,.947.418,2.833,2.833,0,0,0,1,.385,39.445,39.445,0,0,0,6.855-3.244,60.4,60.4,0,0,0,6.5-4.353c6.27-4.882,10.918-10.634,13.2-16.341a25.1,25.1,0,0,0,1.666-6.354,28.75,28.75,0,0,0,0-4.9,14.741,14.741,0,0,0-2-6.064,10.454,10.454,0,0,0-5.6-4.369,7.15,7.15,0,0,0-2.452-.451A13.267,13.267,0,0,0,56,10.279a13.05,13.05,0,0,0-6.108,3.74A34.557,34.557,0,0,0,44,22.3c-.78,1.466-.992,1.756-1.31,1.756-.245,0-.507-.307-.925-1.087a48.03,48.03,0,0,0-4.069-6.159c-2.43-3.032-4.654-4.643-6.967-5.038a8.073,8.073,0,0,0-3.132.184,8.873,8.873,0,0,0-6.014,5.339,17.62,17.62,0,0,0-1.315,4.949,34.3,34.3,0,0,0-.084,4.581,26.543,26.543,0,0,0,.424,3.026c.268,1.321.134,1.795-.613,2.123a3.656,3.656,0,0,1-1.694.112c-.719-.106-.769-.134-.842-.468a36.05,36.05,0,0,1-.986-8.9,19.874,19.874,0,0,1,.97-6.159,14.255,14.255,0,0,1,10.2-9.709,7.407,7.407,0,0,1,2.107-.156,7.407,7.407,0,0,1,2.107.156,15.744,15.744,0,0,1,7.479,4.247c.4.368.791.758.886.864s.513.546.936.975A17.126,17.126,0,0,1,43,15.006l.245.362.374-.563a27.59,27.59,0,0,1,4.587-5.317,22.117,22.117,0,0,1,8.009-4.737A13.144,13.144,0,0,1,62.7,4.321a12.432,12.432,0,0,1,5.027,2.385,19.36,19.36,0,0,1,2.413,2.38,17.49,17.49,0,0,1,2.742,4.849A22.852,22.852,0,0,1,73.8,24.413a36.076,36.076,0,0,1-7.268,17.138,51.149,51.149,0,0,1-6.437,6.526A68.41,68.41,0,0,1,46.27,57.09c-3.439,1.716-3.768,1.867-4.18,1.884A2.024,2.024,0,0,1,41.46,58.912ZM1.237,35.5a1.472,1.472,0,0,1-.869-.82,1.8,1.8,0,0,1-.162-1.02,1.894,1.894,0,0,1,.123-.936,1.976,1.976,0,0,1,1.522-.986A1.585,1.585,0,0,1,3.7,32.779a1.648,1.648,0,0,1,.123.8,1.531,1.531,0,0,1-.4,1.287A2.317,2.317,0,0,1,1.237,35.5Zm.223-5.54a1.408,1.408,0,0,1-.914-.83,17.422,17.422,0,0,1-.479-4.721,51.614,51.614,0,0,1,.139-7.741c.156-.758.507-1.031,1.243-.964a2.373,2.373,0,0,1,2.2,1.678,7.169,7.169,0,0,1-.022,2.6c-.095,1.193-.095,5.83,0,6.688.245,2.146.117,2.748-.68,3.149A1.578,1.578,0,0,1,2.107,30,3,3,0,0,1,1.46,29.964Z" transform="translate(-0.019 10.504)" fill="#ec2027"/>
              </g>
            </g>
          </g>
        </g>
      </g>
    </g>
  </g>
</svg>
